<mxfile host="app.diagrams.net" modified="2021-06-23T08:41:52.932Z" agent="5.0 (Windows NT 10.0; Win64; x64) AppleWebKit/537.36 (KHTML, like Gecko) Chrome/91.0.4472.101 Safari/537.36" etag="ttDVaHFqyrYVSeNklEOe" version="14.8.0" type="github">
  <diagram id="6LS8-5CpZeIo4ZdHkI29" name="Page-1">
    <mxGraphModel dx="1695" dy="490" grid="1" gridSize="10" guides="1" tooltips="1" connect="1" arrows="1" fold="1" page="1" pageScale="1" pageWidth="827" pageHeight="1169" math="0" shadow="0">
      <root>
        <mxCell id="0" />
        <mxCell id="1" parent="0" />
        <mxCell id="MXCJhC8xFmeuoifTWCUa-1" value="HRMS APP" style="rounded=1;whiteSpace=wrap;html=1;" vertex="1" parent="1">
          <mxGeometry x="370" y="30" width="120" height="60" as="geometry" />
        </mxCell>
        <mxCell id="MXCJhC8xFmeuoifTWCUa-2" value="LAYOUT&lt;br&gt;" style="rounded=1;whiteSpace=wrap;html=1;" vertex="1" parent="1">
          <mxGeometry x="370" y="160" width="120" height="60" as="geometry" />
        </mxCell>
        <mxCell id="MXCJhC8xFmeuoifTWCUa-3" value="" style="endArrow=classic;html=1;" edge="1" parent="1" source="MXCJhC8xFmeuoifTWCUa-1">
          <mxGeometry width="50" height="50" relative="1" as="geometry">
            <mxPoint x="430" y="140" as="sourcePoint" />
            <mxPoint x="430" y="160.71067811865476" as="targetPoint" />
          </mxGeometry>
        </mxCell>
        <mxCell id="MXCJhC8xFmeuoifTWCUa-4" value="Filter&lt;br&gt;&amp;lt; Component &amp;gt;" style="rounded=1;whiteSpace=wrap;html=1;" vertex="1" parent="1">
          <mxGeometry x="200" y="290" width="120" height="60" as="geometry" />
        </mxCell>
        <mxCell id="MXCJhC8xFmeuoifTWCUa-5" value="Container" style="rounded=1;whiteSpace=wrap;html=1;" vertex="1" parent="1">
          <mxGeometry x="420" y="290" width="120" height="60" as="geometry" />
        </mxCell>
        <mxCell id="MXCJhC8xFmeuoifTWCUa-6" value="Footer&lt;br&gt;&amp;lt; Component&amp;gt;" style="rounded=1;whiteSpace=wrap;html=1;" vertex="1" parent="1">
          <mxGeometry x="827" y="290" width="120" height="60" as="geometry" />
        </mxCell>
        <mxCell id="MXCJhC8xFmeuoifTWCUa-7" value="Navi&lt;br&gt;&amp;lt; Component &amp;gt;" style="rounded=1;whiteSpace=wrap;html=1;" vertex="1" parent="1">
          <mxGeometry x="-30" y="290" width="120" height="60" as="geometry" />
        </mxCell>
        <mxCell id="MXCJhC8xFmeuoifTWCUa-8" value="" style="endArrow=classic;html=1;exitX=0.667;exitY=1;exitDx=0;exitDy=0;exitPerimeter=0;entryX=0.25;entryY=0;entryDx=0;entryDy=0;" edge="1" parent="1" source="MXCJhC8xFmeuoifTWCUa-2" target="MXCJhC8xFmeuoifTWCUa-5">
          <mxGeometry width="50" height="50" relative="1" as="geometry">
            <mxPoint x="430" y="270" as="sourcePoint" />
            <mxPoint x="430" y="290.71067811865476" as="targetPoint" />
          </mxGeometry>
        </mxCell>
        <mxCell id="MXCJhC8xFmeuoifTWCUa-11" value="" style="endArrow=classic;html=1;entryX=0.875;entryY=-0.033;entryDx=0;entryDy=0;entryPerimeter=0;exitX=0.117;exitY=1;exitDx=0;exitDy=0;exitPerimeter=0;" edge="1" parent="1" source="MXCJhC8xFmeuoifTWCUa-2" target="MXCJhC8xFmeuoifTWCUa-4">
          <mxGeometry width="50" height="50" relative="1" as="geometry">
            <mxPoint x="370" y="260" as="sourcePoint" />
            <mxPoint x="420" y="210" as="targetPoint" />
          </mxGeometry>
        </mxCell>
        <mxCell id="MXCJhC8xFmeuoifTWCUa-13" value="" style="endArrow=classic;html=1;exitX=1;exitY=0.5;exitDx=0;exitDy=0;entryX=0.442;entryY=-0.033;entryDx=0;entryDy=0;entryPerimeter=0;" edge="1" parent="1" source="MXCJhC8xFmeuoifTWCUa-2" target="MXCJhC8xFmeuoifTWCUa-6">
          <mxGeometry width="50" height="50" relative="1" as="geometry">
            <mxPoint x="490" y="230" as="sourcePoint" />
            <mxPoint x="790" y="190" as="targetPoint" />
          </mxGeometry>
        </mxCell>
        <mxCell id="MXCJhC8xFmeuoifTWCUa-14" value="" style="endArrow=classic;html=1;entryX=0.875;entryY=0.033;entryDx=0;entryDy=0;entryPerimeter=0;" edge="1" parent="1" source="MXCJhC8xFmeuoifTWCUa-2" target="MXCJhC8xFmeuoifTWCUa-7">
          <mxGeometry width="50" height="50" relative="1" as="geometry">
            <mxPoint x="299.28932188134524" y="240" as="sourcePoint" />
            <mxPoint x="299.28932188134524" y="190" as="targetPoint" />
          </mxGeometry>
        </mxCell>
        <mxCell id="MXCJhC8xFmeuoifTWCUa-15" value="Sidebar&lt;br&gt;&amp;lt; Component &amp;gt;" style="rounded=1;whiteSpace=wrap;html=1;" vertex="1" parent="1">
          <mxGeometry x="290" y="470" width="120" height="60" as="geometry" />
        </mxCell>
        <mxCell id="MXCJhC8xFmeuoifTWCUa-16" value="Sort By&lt;br&gt;&amp;lt; Component &amp;gt;" style="rounded=1;whiteSpace=wrap;html=1;" vertex="1" parent="1">
          <mxGeometry x="450" y="470" width="120" height="60" as="geometry" />
        </mxCell>
        <mxCell id="MXCJhC8xFmeuoifTWCUa-17" value="Dashboard&lt;br&gt;&amp;lt; Component &amp;gt;" style="rounded=1;whiteSpace=wrap;html=1;" vertex="1" parent="1">
          <mxGeometry x="620" y="470" width="120" height="60" as="geometry" />
        </mxCell>
        <mxCell id="MXCJhC8xFmeuoifTWCUa-18" value="Container" style="rounded=1;whiteSpace=wrap;html=1;" vertex="1" parent="1">
          <mxGeometry x="840" y="410" width="120" height="60" as="geometry" />
        </mxCell>
        <mxCell id="MXCJhC8xFmeuoifTWCUa-19" value="Logo" style="rounded=1;whiteSpace=wrap;html=1;" vertex="1" parent="1">
          <mxGeometry x="-100" y="400" width="120" height="60" as="geometry" />
        </mxCell>
        <mxCell id="MXCJhC8xFmeuoifTWCUa-20" value="Sing In" style="rounded=1;whiteSpace=wrap;html=1;" vertex="1" parent="1">
          <mxGeometry x="-100" y="500" width="120" height="60" as="geometry" />
        </mxCell>
        <mxCell id="MXCJhC8xFmeuoifTWCUa-21" value="SÄ±gn Up" style="rounded=1;whiteSpace=wrap;html=1;" vertex="1" parent="1">
          <mxGeometry x="-100" y="600" width="120" height="60" as="geometry" />
        </mxCell>
        <mxCell id="MXCJhC8xFmeuoifTWCUa-22" value="" style="endArrow=classic;html=1;exitX=0.5;exitY=1;exitDx=0;exitDy=0;" edge="1" parent="1" source="MXCJhC8xFmeuoifTWCUa-7">
          <mxGeometry width="50" height="50" relative="1" as="geometry">
            <mxPoint x="40" y="390" as="sourcePoint" />
            <mxPoint x="20" y="430" as="targetPoint" />
          </mxGeometry>
        </mxCell>
        <mxCell id="MXCJhC8xFmeuoifTWCUa-23" value="" style="endArrow=classic;html=1;exitX=0.75;exitY=1;exitDx=0;exitDy=0;entryX=0.942;entryY=0.017;entryDx=0;entryDy=0;entryPerimeter=0;" edge="1" parent="1" source="MXCJhC8xFmeuoifTWCUa-7" target="MXCJhC8xFmeuoifTWCUa-20">
          <mxGeometry width="50" height="50" relative="1" as="geometry">
            <mxPoint x="60" y="400" as="sourcePoint" />
            <mxPoint x="10" y="510" as="targetPoint" />
          </mxGeometry>
        </mxCell>
        <mxCell id="MXCJhC8xFmeuoifTWCUa-24" value="" style="endArrow=classic;html=1;entryX=1.025;entryY=0.383;entryDx=0;entryDy=0;entryPerimeter=0;" edge="1" parent="1" target="MXCJhC8xFmeuoifTWCUa-21">
          <mxGeometry width="50" height="50" relative="1" as="geometry">
            <mxPoint x="76" y="350" as="sourcePoint" />
            <mxPoint x="160" y="380" as="targetPoint" />
          </mxGeometry>
        </mxCell>
        <mxCell id="MXCJhC8xFmeuoifTWCUa-25" value="" style="endArrow=classic;html=1;exitX=0.5;exitY=1;exitDx=0;exitDy=0;entryX=0.25;entryY=0;entryDx=0;entryDy=0;" edge="1" parent="1" source="MXCJhC8xFmeuoifTWCUa-5" target="MXCJhC8xFmeuoifTWCUa-16">
          <mxGeometry width="50" height="50" relative="1" as="geometry">
            <mxPoint x="460" y="430" as="sourcePoint" />
            <mxPoint x="510" y="380" as="targetPoint" />
          </mxGeometry>
        </mxCell>
        <mxCell id="MXCJhC8xFmeuoifTWCUa-26" value="" style="endArrow=classic;html=1;exitX=0.142;exitY=1;exitDx=0;exitDy=0;exitPerimeter=0;entryX=0.908;entryY=0;entryDx=0;entryDy=0;entryPerimeter=0;" edge="1" parent="1" source="MXCJhC8xFmeuoifTWCUa-5" target="MXCJhC8xFmeuoifTWCUa-15">
          <mxGeometry width="50" height="50" relative="1" as="geometry">
            <mxPoint x="460" y="430" as="sourcePoint" />
            <mxPoint x="400" y="480" as="targetPoint" />
          </mxGeometry>
        </mxCell>
        <mxCell id="MXCJhC8xFmeuoifTWCUa-28" value="" style="endArrow=classic;html=1;exitX=1;exitY=1;exitDx=0;exitDy=0;entryX=0.017;entryY=0.117;entryDx=0;entryDy=0;entryPerimeter=0;" edge="1" parent="1" source="MXCJhC8xFmeuoifTWCUa-5" target="MXCJhC8xFmeuoifTWCUa-17">
          <mxGeometry width="50" height="50" relative="1" as="geometry">
            <mxPoint x="570" y="410" as="sourcePoint" />
            <mxPoint x="620" y="360" as="targetPoint" />
          </mxGeometry>
        </mxCell>
        <mxCell id="MXCJhC8xFmeuoifTWCUa-29" value="" style="endArrow=classic;html=1;exitX=0.5;exitY=1;exitDx=0;exitDy=0;entryX=0.408;entryY=0;entryDx=0;entryDy=0;entryPerimeter=0;" edge="1" parent="1" source="MXCJhC8xFmeuoifTWCUa-6" target="MXCJhC8xFmeuoifTWCUa-18">
          <mxGeometry width="50" height="50" relative="1" as="geometry">
            <mxPoint x="720" y="530" as="sourcePoint" />
            <mxPoint x="770" y="480" as="targetPoint" />
          </mxGeometry>
        </mxCell>
      </root>
    </mxGraphModel>
  </diagram>
</mxfile>
